<svg width="199" height="48" viewBox="0 0 199 48" fill="none" xmlns="http://www.w3.org/2000/svg">
<path d="M22.392 38L15.912 28.64H8.76001V38H0.984009V4.4H15.528C18.504 4.4 21.08 4.896 23.256 5.888C25.464 6.88 27.16 8.288 28.344 10.112C29.528 11.936 30.12 14.096 30.12 16.592C30.12 19.088 29.512 21.248 28.296 23.072C27.112 24.864 25.416 26.24 23.208 27.2L30.744 38H22.392ZM22.248 16.592C22.248 14.704 21.64 13.264 20.424 12.272C19.208 11.248 17.432 10.736 15.096 10.736H8.76001V22.448H15.096C17.432 22.448 19.208 21.936 20.424 20.912C21.64 19.888 22.248 18.448 22.248 16.592Z" fill="white"/>
<path d="M61.0489 25.184C61.0489 25.28 61.0009 25.952 60.9049 27.2H41.3689C41.7209 28.8 42.5529 30.064 43.8649 30.992C45.1769 31.92 46.8089 32.384 48.7609 32.384C50.1049 32.384 51.2889 32.192 52.3129 31.808C53.3689 31.392 54.3449 30.752 55.2409 29.888L59.2249 34.208C56.7929 36.992 53.2409 38.384 48.5689 38.384C45.6569 38.384 43.0809 37.824 40.8409 36.704C38.6009 35.552 36.8729 33.968 35.6569 31.952C34.4409 29.936 33.8329 27.648 33.8329 25.088C33.8329 22.56 34.4249 20.288 35.6089 18.272C36.8249 16.224 38.4729 14.64 40.5529 13.52C42.6649 12.368 45.0169 11.792 47.6089 11.792C50.1369 11.792 52.4249 12.336 54.4729 13.424C56.5209 14.512 58.1209 16.08 59.2729 18.128C60.4569 20.144 61.0489 22.496 61.0489 25.184ZM47.6569 17.456C45.9609 17.456 44.5369 17.936 43.3849 18.896C42.2329 19.856 41.5289 21.168 41.2729 22.832H53.9929C53.7369 21.2 53.0329 19.904 51.8809 18.944C50.7289 17.952 49.3209 17.456 47.6569 17.456Z" fill="white"/>
<path d="M78.5141 38.384C75.7621 38.384 73.2821 37.824 71.0741 36.704C68.8981 35.552 67.1861 33.968 65.9381 31.952C64.7221 29.936 64.1141 27.648 64.1141 25.088C64.1141 22.528 64.7221 20.24 65.9381 18.224C67.1861 16.208 68.8981 14.64 71.0741 13.52C73.2821 12.368 75.7621 11.792 78.5141 11.792C81.2341 11.792 83.6021 12.368 85.6181 13.52C87.6661 14.64 89.1541 16.256 90.0821 18.368L84.2741 21.488C82.9301 19.12 80.9941 17.936 78.4661 17.936C76.5141 17.936 74.8981 18.576 73.6181 19.856C72.3381 21.136 71.6981 22.88 71.6981 25.088C71.6981 27.296 72.3381 29.04 73.6181 30.32C74.8981 31.6 76.5141 32.24 78.4661 32.24C81.0261 32.24 82.9621 31.056 84.2741 28.688L90.0821 31.856C89.1541 33.904 87.6661 35.504 85.6181 36.656C83.6021 37.808 81.2341 38.384 78.5141 38.384Z" fill="white"/>
<path d="M94.3935 12.176H101.882V38H94.3935V12.176ZM98.1375 8.576C96.7615 8.576 95.6415 8.176 94.7775 7.376C93.9135 6.576 93.4815 5.584 93.4815 4.4C93.4815 3.216 93.9135 2.224 94.7775 1.424C95.6415 0.624 96.7615 0.223999 98.1375 0.223999C99.5135 0.223999 100.634 0.608 101.498 1.376C102.362 2.144 102.794 3.104 102.794 4.256C102.794 5.504 102.362 6.544 101.498 7.376C100.634 8.176 99.5135 8.576 98.1375 8.576Z" fill="white"/>
<path d="M124.095 11.792C126.495 11.792 128.671 12.352 130.623 13.472C132.607 14.56 134.159 16.112 135.279 18.128C136.399 20.112 136.959 22.432 136.959 25.088C136.959 27.744 136.399 30.08 135.279 32.096C134.159 34.08 132.607 35.632 130.623 36.752C128.671 37.84 126.495 38.384 124.095 38.384C120.799 38.384 118.207 37.344 116.319 35.264V47.312H108.831V12.176H115.983V15.152C117.839 12.912 120.543 11.792 124.095 11.792ZM122.799 32.24C124.719 32.24 126.287 31.6 127.503 30.32C128.751 29.008 129.375 27.264 129.375 25.088C129.375 22.912 128.751 21.184 127.503 19.904C126.287 18.592 124.719 17.936 122.799 17.936C120.879 17.936 119.295 18.592 118.047 19.904C116.831 21.184 116.223 22.912 116.223 25.088C116.223 27.264 116.831 29.008 118.047 30.32C119.295 31.6 120.879 32.24 122.799 32.24Z" fill="white"/>
<path d="M167.268 25.184C167.268 25.28 167.22 25.952 167.124 27.2H147.588C147.94 28.8 148.772 30.064 150.084 30.992C151.396 31.92 153.028 32.384 154.98 32.384C156.324 32.384 157.508 32.192 158.532 31.808C159.588 31.392 160.564 30.752 161.46 29.888L165.444 34.208C163.012 36.992 159.46 38.384 154.788 38.384C151.876 38.384 149.3 37.824 147.06 36.704C144.82 35.552 143.092 33.968 141.876 31.952C140.66 29.936 140.052 27.648 140.052 25.088C140.052 22.56 140.644 20.288 141.828 18.272C143.044 16.224 144.692 14.64 146.772 13.52C148.884 12.368 151.236 11.792 153.828 11.792C156.356 11.792 158.644 12.336 160.692 13.424C162.74 14.512 164.34 16.08 165.492 18.128C166.676 20.144 167.268 22.496 167.268 25.184ZM153.876 17.456C152.18 17.456 150.756 17.936 149.604 18.896C148.452 19.856 147.748 21.168 147.492 22.832H160.212C159.956 21.2 159.252 19.904 158.1 18.944C156.948 17.952 155.54 17.456 153.876 17.456Z" fill="white"/>
<path d="M179 9.75C179 9.41848 178.868 9.10054 178.634 8.86612C178.399 8.6317 178.082 8.5 177.75 8.5C177.418 8.5 177.101 8.6317 176.866 8.86612C176.632 9.10054 176.5 9.41848 176.5 9.75V17.25C176.5 18.6908 176.997 20.0875 177.908 21.2036C178.82 22.3198 180.088 23.0868 181.5 23.375V42.25C181.5 42.5815 181.632 42.8995 181.866 43.1339C182.101 43.3683 182.418 43.5 182.75 43.5C183.082 43.5 183.399 43.3683 183.634 43.1339C183.868 42.8995 184 42.5815 184 42.25V23.375C185.412 23.0868 186.681 22.3198 187.592 21.2036C188.503 20.0875 189 18.6908 189 17.25V9.75C189 9.41848 188.868 9.10054 188.634 8.86612C188.399 8.6317 188.082 8.5 187.75 8.5C187.418 8.5 187.101 8.6317 186.866 8.86612C186.632 9.10054 186.5 9.41848 186.5 9.75V17.25C186.5 18.0258 186.26 18.7827 185.812 19.4162C185.365 20.0498 184.731 20.5289 184 20.7875V9.75C184 9.41848 183.868 9.10054 183.634 8.86612C183.399 8.6317 183.082 8.5 182.75 8.5C182.418 8.5 182.101 8.6317 181.866 8.86612C181.632 9.10054 181.5 9.41848 181.5 9.75V20.7875C180.769 20.5289 180.135 20.0498 179.688 19.4162C179.24 18.7827 179 18.0258 179 17.25V9.75ZM196.5 42.25V26H192.75C192.418 26 192.101 25.8683 191.866 25.6339C191.632 25.3995 191.5 25.0815 191.5 24.75V14.75C191.5 13.0925 192.315 11.5425 193.428 10.4275C194.543 9.315 196.093 8.5 197.75 8.5C198.082 8.5 198.399 8.6317 198.634 8.86612C198.868 9.10054 199 9.41848 199 9.75V42.25C199 42.5815 198.868 42.8995 198.634 43.1339C198.399 43.3683 198.082 43.5 197.75 43.5C197.418 43.5 197.101 43.3683 196.866 43.1339C196.632 42.8995 196.5 42.5815 196.5 42.25Z" fill="white"/>
</svg>
